<?xml version="1.0" encoding="UTF-8" standalone="no"?>
<!DOCTYPE svg PUBLIC "-//W3C//DTD SVG 1.1//EN" "http://www.w3.org/Graphics/SVG/1.1/DTD/svg11.dtd">
<svg width="100%" height="100%" viewBox="0 0 657 657" version="1.1" xmlns="http://www.w3.org/2000/svg" xmlns:xlink="http://www.w3.org/1999/xlink" xml:space="preserve" xmlns:serif="http://www.serif.com/" style="fill-rule:evenodd;clip-rule:evenodd;stroke-linejoin:round;stroke-miterlimit:2;">
    <g transform="matrix(0.964605,0,0,0.964605,-329.598,-52.6706)">
        <g transform="matrix(200,0,0,200,378.527,374.438)">
            <path d="M0.485,-0.413L0.256,-0.413L0.256,-0.39L0.462,-0.39L0.462,-0.209C0.462,-0.088 0.362,-0.009 0.258,-0.009C0.154,-0.009 0.053,-0.088 0.053,-0.209L0.053,-0.587C0.053,-0.709 0.154,-0.788 0.258,-0.788C0.362,-0.788 0.462,-0.709 0.462,-0.587L0.462,-0.564L0.485,-0.564L0.485,-0.587C0.485,-0.719 0.384,-0.811 0.258,-0.811C0.132,-0.811 0.031,-0.719 0.031,-0.587L0.031,-0.209C0.031,-0.078 0.132,0.015 0.258,0.015C0.384,0.015 0.485,-0.078 0.485,-0.209L0.485,-0.413ZM0.439,-0.367L0.256,-0.367L0.256,-0.345L0.416,-0.345L0.416,-0.209C0.416,-0.118 0.35,-0.053 0.258,-0.053C0.166,-0.053 0.1,-0.118 0.1,-0.209L0.1,-0.587C0.1,-0.679 0.166,-0.743 0.258,-0.743C0.35,-0.743 0.416,-0.679 0.416,-0.587L0.416,-0.564L0.439,-0.564L0.439,-0.587C0.439,-0.694 0.351,-0.766 0.258,-0.766C0.165,-0.766 0.077,-0.694 0.077,-0.587L0.077,-0.209C0.077,-0.103 0.165,-0.031 0.258,-0.031C0.351,-0.031 0.439,-0.103 0.439,-0.209L0.439,-0.367ZM0.394,-0.322L0.256,-0.322L0.256,-0.3L0.371,-0.3L0.371,-0.209C0.371,-0.14 0.328,-0.099 0.258,-0.099C0.188,-0.099 0.144,-0.14 0.144,-0.209L0.144,-0.587C0.144,-0.657 0.188,-0.698 0.258,-0.698C0.328,-0.698 0.371,-0.657 0.371,-0.587L0.371,-0.564L0.394,-0.564L0.394,-0.587C0.394,-0.67 0.33,-0.72 0.258,-0.72C0.186,-0.72 0.122,-0.67 0.122,-0.587L0.122,-0.209C0.122,-0.127 0.186,-0.077 0.258,-0.077C0.33,-0.077 0.394,-0.127 0.394,-0.209L0.394,-0.322Z" style="fill:white;fill-rule:nonzero;"/>
        </g>
        <g transform="matrix(200,0,0,200,481.727,374.438)">
            <path d="M0.263,-0.387C0.363,-0.387 0.426,-0.314 0.426,-0.221L0.426,-0L0.45,-0L0.45,-0.221C0.45,-0.303 0.407,-0.376 0.327,-0.398C0.4,-0.418 0.447,-0.483 0.447,-0.576C0.447,-0.682 0.377,-0.751 0.263,-0.751L0.083,-0.751L0.083,-0L0.107,-0L0.107,-0.387L0.263,-0.387ZM0.107,-0.409L0.107,-0.729L0.263,-0.729C0.367,-0.729 0.426,-0.668 0.426,-0.576C0.426,-0.482 0.369,-0.409 0.263,-0.409L0.107,-0.409ZM0.129,-0.431L0.263,-0.431C0.346,-0.431 0.404,-0.481 0.404,-0.576C0.404,-0.656 0.355,-0.706 0.263,-0.706L0.129,-0.706L0.129,-0.431ZM0.152,-0.454L0.152,-0.683L0.263,-0.683C0.339,-0.683 0.383,-0.647 0.383,-0.576C0.383,-0.492 0.332,-0.454 0.263,-0.454L0.152,-0.454ZM0.408,-0.398C0.457,-0.431 0.489,-0.483 0.489,-0.576C0.489,-0.719 0.401,-0.797 0.263,-0.797L0.039,-0.797L0.039,-0L0.061,-0L0.061,-0.774L0.263,-0.774C0.389,-0.774 0.467,-0.701 0.467,-0.576C0.467,-0.494 0.442,-0.436 0.374,-0.398C0.441,-0.357 0.472,-0.296 0.472,-0.221L0.472,-0L0.495,-0L0.495,-0.221C0.495,-0.294 0.466,-0.358 0.408,-0.398ZM0.263,-0.363L0.129,-0.363L0.129,-0L0.152,-0L0.152,-0.342L0.263,-0.342C0.337,-0.342 0.382,-0.293 0.382,-0.221L0.382,-0L0.404,-0L0.404,-0.221C0.404,-0.31 0.352,-0.363 0.263,-0.363Z" style="fill:white;fill-rule:nonzero;"/>
        </g>
        <g transform="matrix(200,0,0,200,587.727,374.438)">
            <path d="M0.485,-0.587C0.485,-0.719 0.384,-0.811 0.258,-0.811C0.132,-0.811 0.031,-0.719 0.031,-0.587L0.031,-0.209C0.031,-0.078 0.132,0.015 0.258,0.015C0.384,0.015 0.485,-0.078 0.485,-0.209L0.485,-0.587ZM0.462,-0.209C0.462,-0.088 0.362,-0.009 0.258,-0.009C0.154,-0.009 0.053,-0.088 0.053,-0.209L0.053,-0.587C0.053,-0.709 0.154,-0.788 0.258,-0.788C0.362,-0.788 0.462,-0.709 0.462,-0.587L0.462,-0.209ZM0.439,-0.587C0.439,-0.694 0.351,-0.766 0.258,-0.766C0.165,-0.766 0.077,-0.694 0.077,-0.587L0.077,-0.209C0.077,-0.103 0.165,-0.031 0.258,-0.031C0.351,-0.031 0.439,-0.103 0.439,-0.209L0.439,-0.587ZM0.416,-0.209C0.416,-0.118 0.35,-0.053 0.258,-0.053C0.166,-0.053 0.1,-0.118 0.1,-0.209L0.1,-0.587C0.1,-0.679 0.166,-0.743 0.258,-0.743C0.35,-0.743 0.416,-0.679 0.416,-0.587L0.416,-0.209ZM0.394,-0.587C0.394,-0.67 0.33,-0.72 0.258,-0.72C0.186,-0.72 0.122,-0.67 0.122,-0.587L0.122,-0.209C0.122,-0.127 0.186,-0.077 0.258,-0.077C0.33,-0.077 0.394,-0.127 0.394,-0.209L0.394,-0.587ZM0.371,-0.209C0.371,-0.14 0.328,-0.099 0.258,-0.099C0.188,-0.099 0.144,-0.14 0.144,-0.209L0.144,-0.587C0.144,-0.657 0.188,-0.698 0.258,-0.698C0.328,-0.698 0.371,-0.657 0.371,-0.587L0.371,-0.209Z" style="fill:white;fill-rule:nonzero;"/>
        </g>
        <g transform="matrix(200,0,0,200,690.927,374.438)">
            <path d="M0.485,-0.587C0.485,-0.719 0.384,-0.811 0.258,-0.811C0.132,-0.811 0.031,-0.719 0.031,-0.587L0.031,-0.209C0.031,-0.078 0.132,0.015 0.258,0.015C0.384,0.015 0.485,-0.078 0.485,-0.209L0.485,-0.587ZM0.462,-0.209C0.462,-0.088 0.362,-0.009 0.258,-0.009C0.154,-0.009 0.053,-0.088 0.053,-0.209L0.053,-0.587C0.053,-0.709 0.154,-0.788 0.258,-0.788C0.362,-0.788 0.462,-0.709 0.462,-0.587L0.462,-0.209ZM0.439,-0.587C0.439,-0.694 0.351,-0.766 0.258,-0.766C0.165,-0.766 0.077,-0.694 0.077,-0.587L0.077,-0.209C0.077,-0.103 0.165,-0.031 0.258,-0.031C0.351,-0.031 0.439,-0.103 0.439,-0.209L0.439,-0.587ZM0.416,-0.209C0.416,-0.118 0.35,-0.053 0.258,-0.053C0.166,-0.053 0.1,-0.118 0.1,-0.209L0.1,-0.587C0.1,-0.679 0.166,-0.743 0.258,-0.743C0.35,-0.743 0.416,-0.679 0.416,-0.587L0.416,-0.209ZM0.394,-0.587C0.394,-0.67 0.33,-0.72 0.258,-0.72C0.186,-0.72 0.122,-0.67 0.122,-0.587L0.122,-0.209C0.122,-0.127 0.186,-0.077 0.258,-0.077C0.33,-0.077 0.394,-0.127 0.394,-0.209L0.394,-0.587ZM0.371,-0.209C0.371,-0.14 0.328,-0.099 0.258,-0.099C0.188,-0.099 0.144,-0.14 0.144,-0.209L0.144,-0.587C0.144,-0.657 0.188,-0.698 0.258,-0.698C0.328,-0.698 0.371,-0.657 0.371,-0.587L0.371,-0.209Z" style="fill:white;fill-rule:nonzero;"/>
        </g>
        <g transform="matrix(200,0,0,200,790.127,374.438)">
            <path d="M0.242,-0L0.411,-0.797L0.387,-0.797L0.232,-0.052L0.076,-0.797L0.053,-0.797L0.221,-0L0.242,-0ZM0.365,-0.797L0.342,-0.797L0.232,-0.263L0.121,-0.797L0.099,-0.797L0.232,-0.159L0.365,-0.797ZM0.455,-0.797L0.432,-0.797L0.266,-0L0.287,-0L0.455,-0.797ZM0.031,-0.797L0.008,-0.797L0.175,-0L0.198,-0L0.031,-0.797Z" style="fill:white;fill-rule:nonzero;"/>
        </g>
        <g transform="matrix(200,0,0,200,882.527,374.438)">
            <path d="M0.271,-0.359C0.364,-0.366 0.437,-0.45 0.437,-0.542L0.437,-0.797L0.414,-0.797L0.414,-0.542C0.414,-0.457 0.351,-0.381 0.261,-0.381C0.172,-0.381 0.097,-0.457 0.097,-0.542L0.097,-0.797L0.074,-0.797L0.074,-0.536C0.074,-0.45 0.155,-0.362 0.249,-0.359L0.249,-0L0.271,-0L0.271,-0.359ZM0.226,-0.336C0.128,-0.352 0.051,-0.44 0.051,-0.542L0.051,-0.797L0.029,-0.797L0.029,-0.536C0.029,-0.432 0.1,-0.346 0.204,-0.32L0.204,-0L0.226,-0L0.226,-0.336ZM0.392,-0.797L0.369,-0.797L0.369,-0.536C0.369,-0.472 0.332,-0.426 0.254,-0.426C0.184,-0.426 0.142,-0.472 0.142,-0.542L0.142,-0.797L0.119,-0.797L0.119,-0.542C0.119,-0.465 0.177,-0.403 0.252,-0.403C0.332,-0.403 0.392,-0.465 0.392,-0.542L0.392,-0.797ZM0.317,-0.322C0.411,-0.348 0.483,-0.432 0.483,-0.536L0.483,-0.797L0.46,-0.797L0.46,-0.533C0.46,-0.44 0.383,-0.356 0.294,-0.34L0.294,-0L0.317,-0L0.317,-0.322Z" style="fill:white;fill-rule:nonzero;"/>
        </g>
        <g transform="matrix(200,0,0,200,378.527,574.438)">
            <path d="M0.363,-0L0.385,-0L0.385,-0.612C0.385,-0.692 0.432,-0.743 0.515,-0.743C0.597,-0.743 0.644,-0.692 0.644,-0.612L0.644,-0L0.667,-0L0.667,-0.612C0.667,-0.702 0.614,-0.766 0.515,-0.766C0.44,-0.766 0.391,-0.734 0.373,-0.667C0.363,-0.728 0.304,-0.766 0.233,-0.766C0.134,-0.766 0.08,-0.702 0.08,-0.612L0.08,-0L0.104,-0L0.104,-0.612C0.104,-0.692 0.15,-0.743 0.233,-0.743C0.315,-0.743 0.363,-0.692 0.363,-0.612L0.363,-0ZM0.69,-0L0.712,-0L0.712,-0.612C0.712,-0.728 0.649,-0.811 0.515,-0.811C0.453,-0.811 0.403,-0.79 0.373,-0.758C0.341,-0.79 0.295,-0.811 0.233,-0.811C0.098,-0.811 0.035,-0.728 0.035,-0.612L0.035,-0L0.057,-0L0.057,-0.612C0.057,-0.713 0.115,-0.788 0.233,-0.788C0.293,-0.788 0.337,-0.768 0.374,-0.724C0.411,-0.768 0.456,-0.788 0.515,-0.788C0.632,-0.788 0.69,-0.713 0.69,-0.612L0.69,-0ZM0.599,-0L0.621,-0L0.621,-0.612C0.621,-0.679 0.578,-0.72 0.515,-0.72C0.452,-0.72 0.407,-0.679 0.407,-0.612L0.407,-0L0.429,-0L0.429,-0.612C0.429,-0.67 0.466,-0.698 0.515,-0.698C0.563,-0.698 0.599,-0.67 0.599,-0.612L0.599,-0ZM0.318,-0L0.34,-0L0.34,-0.612C0.34,-0.679 0.296,-0.72 0.233,-0.72C0.17,-0.72 0.126,-0.679 0.126,-0.612L0.126,-0L0.148,-0L0.148,-0.612C0.148,-0.67 0.184,-0.698 0.233,-0.698C0.281,-0.698 0.318,-0.67 0.318,-0.612L0.318,-0Z" style="fill:white;fill-rule:nonzero;"/>
        </g>
        <g transform="matrix(200,0,0,200,527.927,574.438)">
            <path d="M0.485,-0.587C0.485,-0.719 0.384,-0.811 0.258,-0.811C0.132,-0.811 0.031,-0.719 0.031,-0.587L0.031,-0.209C0.031,-0.078 0.132,0.015 0.258,0.015C0.384,0.015 0.485,-0.078 0.485,-0.209L0.485,-0.587ZM0.462,-0.209C0.462,-0.088 0.362,-0.009 0.258,-0.009C0.154,-0.009 0.053,-0.088 0.053,-0.209L0.053,-0.587C0.053,-0.709 0.154,-0.788 0.258,-0.788C0.362,-0.788 0.462,-0.709 0.462,-0.587L0.462,-0.209ZM0.439,-0.587C0.439,-0.694 0.351,-0.766 0.258,-0.766C0.165,-0.766 0.077,-0.694 0.077,-0.587L0.077,-0.209C0.077,-0.103 0.165,-0.031 0.258,-0.031C0.351,-0.031 0.439,-0.103 0.439,-0.209L0.439,-0.587ZM0.416,-0.209C0.416,-0.118 0.35,-0.053 0.258,-0.053C0.166,-0.053 0.1,-0.118 0.1,-0.209L0.1,-0.587C0.1,-0.679 0.166,-0.743 0.258,-0.743C0.35,-0.743 0.416,-0.679 0.416,-0.587L0.416,-0.209ZM0.394,-0.587C0.394,-0.67 0.33,-0.72 0.258,-0.72C0.186,-0.72 0.122,-0.67 0.122,-0.587L0.122,-0.209C0.122,-0.127 0.186,-0.077 0.258,-0.077C0.33,-0.077 0.394,-0.127 0.394,-0.209L0.394,-0.587ZM0.371,-0.209C0.371,-0.14 0.328,-0.099 0.258,-0.099C0.188,-0.099 0.144,-0.14 0.144,-0.209L0.144,-0.587C0.144,-0.657 0.188,-0.698 0.258,-0.698C0.328,-0.698 0.371,-0.657 0.371,-0.587L0.371,-0.209Z" style="fill:white;fill-rule:nonzero;"/>
        </g>
        <g transform="matrix(200,0,0,200,627.127,574.438)">
            <path d="M0.242,-0L0.411,-0.797L0.387,-0.797L0.232,-0.052L0.076,-0.797L0.053,-0.797L0.221,-0L0.242,-0ZM0.365,-0.797L0.342,-0.797L0.232,-0.263L0.121,-0.797L0.099,-0.797L0.232,-0.159L0.365,-0.797ZM0.455,-0.797L0.432,-0.797L0.266,-0L0.287,-0L0.455,-0.797ZM0.031,-0.797L0.008,-0.797L0.175,-0L0.198,-0L0.031,-0.797Z" style="fill:white;fill-rule:nonzero;"/>
        </g>
        <g transform="matrix(200,0,0,200,719.527,574.438)">
            <path d="M0.062,-0.797L0.039,-0.797L0.039,-0L0.062,-0L0.062,-0.797ZM0.108,-0.797L0.084,-0.797L0.084,-0L0.108,-0L0.108,-0.797ZM0.152,-0.797L0.13,-0.797L0.13,-0L0.152,-0L0.152,-0.797Z" style="fill:white;fill-rule:nonzero;"/>
        </g>
        <g transform="matrix(200,0,0,200,757.727,574.438)">
            <path d="M0.47,-0.209C0.47,-0.088 0.369,-0.009 0.266,-0.009C0.162,-0.009 0.061,-0.088 0.061,-0.209L0.061,-0.587C0.061,-0.709 0.162,-0.788 0.266,-0.788C0.369,-0.788 0.47,-0.709 0.47,-0.587L0.47,-0.564L0.492,-0.564L0.492,-0.587C0.492,-0.719 0.392,-0.811 0.266,-0.811C0.14,-0.811 0.039,-0.719 0.039,-0.587L0.039,-0.209C0.039,-0.078 0.14,0.015 0.266,0.015C0.392,0.015 0.492,-0.078 0.492,-0.209L0.492,-0.229L0.47,-0.229L0.47,-0.209ZM0.108,-0.587C0.108,-0.679 0.174,-0.743 0.266,-0.743C0.358,-0.743 0.424,-0.679 0.424,-0.587L0.424,-0.564L0.447,-0.564L0.447,-0.587C0.447,-0.694 0.359,-0.766 0.266,-0.766C0.173,-0.766 0.084,-0.694 0.084,-0.587L0.084,-0.209C0.084,-0.103 0.173,-0.031 0.266,-0.031C0.359,-0.031 0.447,-0.103 0.447,-0.209L0.447,-0.229L0.424,-0.229L0.424,-0.209C0.424,-0.118 0.358,-0.053 0.266,-0.053C0.174,-0.053 0.108,-0.118 0.108,-0.209L0.108,-0.386L0.345,-0.386L0.345,-0.408L0.108,-0.408L0.108,-0.587ZM0.152,-0.587C0.152,-0.657 0.196,-0.698 0.266,-0.698C0.335,-0.698 0.379,-0.657 0.379,-0.587L0.379,-0.564L0.401,-0.564L0.401,-0.587C0.401,-0.67 0.337,-0.72 0.266,-0.72C0.194,-0.72 0.13,-0.67 0.13,-0.587L0.13,-0.43L0.345,-0.43L0.345,-0.454L0.152,-0.454L0.152,-0.587ZM0.379,-0.209C0.379,-0.14 0.335,-0.099 0.266,-0.099C0.196,-0.099 0.152,-0.14 0.152,-0.209L0.152,-0.34L0.345,-0.34L0.345,-0.363L0.13,-0.363L0.13,-0.209C0.13,-0.127 0.194,-0.077 0.266,-0.077C0.337,-0.077 0.401,-0.127 0.401,-0.209L0.401,-0.229L0.379,-0.229L0.379,-0.209Z" style="fill:white;fill-rule:nonzero;"/>
        </g>
    </g>
</svg>
