<?xml version="1.0" encoding="UTF-8" standalone="no"?>
<!DOCTYPE svg PUBLIC "-//W3C//DTD SVG 1.1//EN" "http://www.w3.org/Graphics/SVG/1.1/DTD/svg11.dtd">
<svg width="100%" height="100%" viewBox="0 0 1259 703" version="1.1" xmlns="http://www.w3.org/2000/svg" xmlns:xlink="http://www.w3.org/1999/xlink" xml:space="preserve" xmlns:serif="http://www.serif.com/" style="fill-rule:evenodd;clip-rule:evenodd;stroke-linejoin:round;stroke-miterlimit:2;">
    <g transform="matrix(3.125,0,0,3.125,0,0)">
        <g id="POPCORN" transform="matrix(0.196141,0,0,0.196141,302.295,123.563)">
            <path d="M512,256C512,397.387 397.387,512 256,512C114.613,512 0,397.387 0,256C0,114.613 114.613,0 256,0C397.387,0 512,114.613 512,256Z" style="fill:rgb(2,198,220);fill-rule:nonzero;"/>
            <g>
                <path d="M244.098,142.492C244.098,128.688 255.289,117.492 269.098,117.492C277.277,117.492 284.535,121.422 289.098,127.492C293.66,121.422 300.918,117.492 309.098,117.492C322.906,117.492 334.098,128.688 334.098,142.492C334.098,154.797 325.211,165.016 313.508,167.098C313.891,168.836 314.098,170.641 314.098,172.492C314.098,186.301 302.906,197.492 289.098,197.492C275.289,197.492 264.098,186.301 264.098,172.492C264.098,170.641 264.305,168.836 264.688,167.098C252.984,165.016 244.098,154.797 244.098,142.492Z" style="fill:rgb(253,180,76);fill-rule:nonzero;"/>
                <path d="M244.152,160.324C244.988,147.523 255.68,137.305 268.504,137.008C275.305,136.852 281.508,139.406 286.102,143.676C287.801,145.25 290.398,145.25 292.094,143.676C296.691,139.41 302.891,136.852 309.691,137.008C322.516,137.305 333.207,147.52 334.043,160.324C334.895,173.363 325.738,184.426 313.508,186.605C313.891,188.344 314.098,190.148 314.098,192C314.098,206.496 301.762,218.113 287.012,216.918C276.117,216.031 266.941,207.941 264.656,197.25C263.863,193.535 263.953,189.949 264.688,186.605C252.457,184.426 243.301,173.363 244.152,160.324Z" style="fill:rgb(253,194,115);fill-rule:nonzero;"/>
                <path d="M303.938,214.277C302.438,213.32 301.016,212.191 299.703,210.883C289.941,201.117 289.941,185.289 299.703,175.527C309.469,165.762 325.297,165.762 335.059,175.527C336.367,176.836 337.496,178.258 338.457,179.758C348.207,172.957 361.715,173.898 370.414,182.598C379.113,191.297 380.055,204.805 373.254,214.555C374.754,215.516 376.176,216.641 377.484,217.953C387.25,227.715 387.25,243.547 377.484,253.309C367.723,263.07 351.895,263.07 342.133,253.309C340.82,251.996 339.691,250.574 338.734,249.074C328.984,255.875 315.473,254.934 306.773,246.238C298.078,237.539 297.137,224.027 303.938,214.277Z" style="fill:rgb(253,180,76);fill-rule:nonzero;"/>
                <path d="M295.473,193.066C302.273,202.816 301.332,216.324 292.633,225.023C283.937,233.723 270.426,234.664 260.676,227.863C259.719,229.363 258.59,230.785 257.277,232.094C247.516,241.855 231.687,241.855 221.922,232.094C212.16,222.332 212.16,206.504 221.922,196.738C223.234,195.43 224.656,194.301 226.156,193.344C219.355,183.594 220.297,170.082 228.992,161.383C237.691,152.684 251.203,151.742 260.953,158.547C261.91,157.047 263.039,155.625 264.352,154.313C274.113,144.551 289.941,144.551 299.703,154.313C309.469,164.074 309.469,179.906 299.703,189.668C298.395,190.98 296.973,192.105 295.473,193.066ZM391.629,288.664C390.316,287.352 388.895,286.227 387.395,285.266C394.195,275.516 393.254,262.008 384.559,253.309C375.859,244.609 362.348,243.668 352.598,250.469C351.641,248.969 350.512,247.547 349.199,246.238C339.438,236.473 323.609,236.473 313.848,246.238C304.082,256 304.082,271.828 313.848,281.594C315.156,282.902 316.578,284.031 318.078,284.988C311.277,294.738 312.219,308.25 320.918,316.949C329.613,325.645 343.125,326.59 352.875,319.785C353.832,321.285 354.961,322.707 356.273,324.02C366.035,333.781 381.863,333.781 391.629,324.02C401.391,314.258 401.391,298.426 391.629,288.664Z" style="fill:rgb(255,223,142);fill-rule:nonzero;"/>
                <path d="M369.559,61.371C365.191,74.473 351.035,81.551 337.938,77.184C336.18,76.598 334.531,75.828 333.004,74.918C327.324,85.359 314.82,90.563 303.152,86.672C291.48,82.781 284.598,71.117 286.32,59.355C284.551,59.172 282.773,58.797 281.016,58.211C267.914,53.844 260.836,39.688 265.203,26.59C269.57,13.488 283.727,6.41 296.824,10.777C298.586,11.363 300.23,12.129 301.758,13.043C307.437,2.598 319.941,-2.602 331.609,1.289C343.281,5.18 350.164,16.844 348.441,28.602C350.211,28.789 351.988,29.164 353.746,29.75C366.848,34.117 373.926,48.273 369.559,61.371ZM250.207,118.957C240.445,109.195 224.613,109.195 214.852,118.957C213.539,120.27 212.414,121.691 211.453,123.191C201.703,116.387 188.195,117.328 179.496,126.027C169.734,135.793 169.734,151.621 179.496,161.383C185.277,167.168 193.191,169.523 200.711,168.453C199.641,175.973 201.996,183.883 207.781,189.668C217.543,199.43 233.371,199.43 243.137,189.668C251.836,180.969 252.777,167.457 245.973,157.711C247.473,156.75 248.895,155.621 250.207,154.313C259.969,144.551 259.969,128.723 250.207,118.957Z" style="fill:rgb(255,242,180);fill-rule:nonzero;"/>
                <path d="M368.621,63.773C364.227,73.57 353.82,79.488 343.148,78.32C339.352,77.902 335.957,76.68 333.004,74.918C327.324,85.359 314.82,90.559 303.152,86.672C291.48,82.781 284.598,71.117 286.32,59.355C282.941,59 279.535,57.961 276.285,56.063C266.879,50.574 262.066,39.375 264.582,28.777C265.715,23.992 268.117,19.914 271.309,16.75C273.574,24.266 279.328,30.602 287.34,33.27C287.359,33.277 287.375,33.281 287.395,33.289C290.172,34.207 292.254,36.605 292.43,39.523C293.031,49.41 299.508,58.406 309.477,61.73C319.449,65.055 330.027,61.742 336.441,54.195C338.324,51.977 341.414,51.281 344.172,52.215C344.203,52.223 344.234,52.234 344.266,52.242C353.52,55.328 363.297,52.695 369.781,46.27C371.445,51.797 371.23,57.957 368.621,63.773ZM247.957,116.957C239.988,110.652 228.758,109.883 219.988,115.008C216.297,117.16 213.492,120.004 211.453,123.191C201.703,116.391 188.195,117.332 179.496,126.027C171.848,133.68 170.191,145.051 174.531,154.313C175.727,151.754 177.383,149.355 179.496,147.242C187.262,139.477 198.863,137.895 208.199,142.484C210.09,143.414 212.383,142.898 213.773,141.32C215.223,139.672 216.93,138.176 218.914,136.883C227.941,131.004 239.965,131.625 248.301,138.449C251.348,140.941 253.637,143.961 255.172,147.242C259.906,137.133 257.504,124.508 247.957,116.957Z" style="fill:rgb(255,232,153);fill-rule:nonzero;"/>
                <path d="M284.527,284.344C270.719,284.344 259.527,273.152 259.527,259.344C259.527,251.164 263.453,243.906 269.527,239.344C263.453,234.781 259.527,227.523 259.527,219.344C259.527,205.535 270.719,194.344 284.527,194.344C296.828,194.344 307.047,203.23 309.129,214.934C310.867,214.551 312.672,214.344 314.527,214.344C328.332,214.344 339.527,225.535 339.527,239.344C339.527,253.152 328.332,264.344 314.527,264.344C312.672,264.344 310.867,264.137 309.129,263.754C307.047,275.457 296.828,284.344 284.527,284.344Z" style="fill:rgb(255,242,180);fill-rule:nonzero;"/>
                <path d="M400,154.563C400,168.371 388.809,179.563 375,179.563C373.145,179.563 371.344,179.355 369.605,178.973C367.52,190.676 357.301,199.563 345,199.563C331.191,199.563 320,188.371 320,174.563C320,166.387 323.93,159.125 330,154.563C323.93,150.004 320,142.742 320,134.563C320,120.758 331.191,109.563 345,109.563C357.301,109.563 367.52,118.453 369.605,130.152C371.344,129.77 373.145,129.563 375,129.563C388.809,129.563 400,140.758 400,154.563ZM490.285,153.004C490.668,151.266 490.875,149.461 490.875,147.609C490.875,133.801 479.68,122.609 465.875,122.609C452.066,122.609 440.875,133.801 440.875,147.609C440.875,149.461 441.082,151.266 441.465,153.004C429.762,155.09 420.875,165.309 420.875,177.609C420.875,191.414 432.066,202.609 445.875,202.609C454.051,202.609 461.313,198.68 465.875,192.609C470.434,198.68 477.695,202.609 485.875,202.609C499.68,202.609 510.875,191.414 510.875,177.609C510.875,165.309 501.988,155.09 490.285,153.004Z" style="fill:rgb(255,232,153);fill-rule:nonzero;"/>
                <path d="M399.922,156.57C399.07,167.477 391,176.676 380.309,178.992C376.574,179.801 372.969,179.715 369.605,178.973C368.164,187.066 362.828,193.813 355.605,197.203C347.102,193.211 341.215,184.578 341.215,174.566C341.215,167.75 343.941,161.57 348.363,157.063C349.711,155.688 349.711,153.441 348.363,152.066C343.941,147.559 341.215,141.379 341.215,134.566C341.215,124.551 347.102,115.918 355.605,111.926C362.828,115.316 368.164,122.059 369.605,130.156C371.344,129.773 373.148,129.566 375,129.566C389.469,129.563 401.07,141.859 399.922,156.57ZM490.285,153.004C491.012,149.695 491.105,146.148 490.344,142.473C488.125,131.781 478.992,123.652 468.113,122.707C453.297,121.418 440.875,133.063 440.875,147.609C440.875,149.461 441.082,151.266 441.465,153.004C433.371,154.445 426.629,159.781 423.234,167.004C427.227,175.504 435.859,181.395 445.875,181.395C452.547,181.395 458.609,178.777 463.094,174.52C464.648,173.039 467.102,173.039 468.656,174.52C473.137,178.777 479.199,181.395 485.875,181.395C495.887,181.395 504.52,175.508 508.512,167.004C505.121,159.781 498.379,154.445 490.285,153.004Z" style="fill:rgb(255,242,180);fill-rule:nonzero;"/>
                <path d="M370.188,309.648C382.09,321.555 381.23,341.102 368.328,351.91L188.129,502.887C101.305,479.074 32.93,410.695 9.113,323.871L160.09,143.672C170.898,130.77 190.449,129.91 202.352,141.813C213.551,153.012 213.551,171.172 202.352,182.371C213.551,171.172 255.977,213.598 244.777,224.797C255.977,213.598 274.137,213.598 285.336,224.797L287.203,226.664C298.402,237.863 298.402,256.023 287.203,267.223C298.402,256.023 340.828,298.449 329.629,309.648C340.828,298.449 358.988,298.449 370.188,309.648Z" style="fill:rgb(253,108,85);fill-rule:nonzero;"/>
                <path d="M202.352,141.813C202.363,141.824 202.375,141.84 202.387,141.852C198,143.898 193.898,146.949 190.473,150.965L18.699,352.18C14.977,342.996 11.766,333.547 9.113,323.867L160.09,143.672C170.898,130.77 190.445,129.91 202.352,141.813Z" style="fill:rgb(252,84,77);fill-rule:nonzero;"/>
                <path d="M329.629,309.648L150.133,489.145C131.227,480.547 113.551,469.715 97.437,456.988L287.203,267.223C298.402,256.023 316.563,256.023 327.762,267.223L329.629,269.09C340.828,280.293 340.828,298.449 329.629,309.648ZM244.777,184.238L242.91,182.371C231.711,171.172 213.551,171.172 202.352,182.371L22.855,361.867C31.453,380.773 42.285,398.449 55.012,414.563L244.777,224.797C255.977,213.598 255.977,195.438 244.777,184.238Z" style="fill:rgb(255,167,153);fill-rule:nonzero;"/>
            </g>
        </g>
        <g transform="matrix(0.615509,0,0,0.615509,-236.803,-130.634)">
            <g transform="matrix(200,0,0,200,378.527,374.438)">
                <path d="M0.485,-0.413L0.256,-0.413L0.256,-0.39L0.462,-0.39L0.462,-0.209C0.462,-0.088 0.362,-0.009 0.258,-0.009C0.154,-0.009 0.053,-0.088 0.053,-0.209L0.053,-0.587C0.053,-0.709 0.154,-0.788 0.258,-0.788C0.362,-0.788 0.462,-0.709 0.462,-0.587L0.462,-0.564L0.485,-0.564L0.485,-0.587C0.485,-0.719 0.384,-0.811 0.258,-0.811C0.132,-0.811 0.031,-0.719 0.031,-0.587L0.031,-0.209C0.031,-0.078 0.132,0.015 0.258,0.015C0.384,0.015 0.485,-0.078 0.485,-0.209L0.485,-0.413ZM0.439,-0.367L0.256,-0.367L0.256,-0.345L0.416,-0.345L0.416,-0.209C0.416,-0.118 0.35,-0.053 0.258,-0.053C0.166,-0.053 0.1,-0.118 0.1,-0.209L0.1,-0.587C0.1,-0.679 0.166,-0.743 0.258,-0.743C0.35,-0.743 0.416,-0.679 0.416,-0.587L0.416,-0.564L0.439,-0.564L0.439,-0.587C0.439,-0.694 0.351,-0.766 0.258,-0.766C0.165,-0.766 0.077,-0.694 0.077,-0.587L0.077,-0.209C0.077,-0.103 0.165,-0.031 0.258,-0.031C0.351,-0.031 0.439,-0.103 0.439,-0.209L0.439,-0.367ZM0.394,-0.322L0.256,-0.322L0.256,-0.3L0.371,-0.3L0.371,-0.209C0.371,-0.14 0.328,-0.099 0.258,-0.099C0.188,-0.099 0.144,-0.14 0.144,-0.209L0.144,-0.587C0.144,-0.657 0.188,-0.698 0.258,-0.698C0.328,-0.698 0.371,-0.657 0.371,-0.587L0.371,-0.564L0.394,-0.564L0.394,-0.587C0.394,-0.67 0.33,-0.72 0.258,-0.72C0.186,-0.72 0.122,-0.67 0.122,-0.587L0.122,-0.209C0.122,-0.127 0.186,-0.077 0.258,-0.077C0.33,-0.077 0.394,-0.127 0.394,-0.209L0.394,-0.322Z" style="fill:white;fill-rule:nonzero;"/>
            </g>
            <g transform="matrix(200,0,0,200,481.727,374.438)">
                <path d="M0.263,-0.387C0.363,-0.387 0.426,-0.314 0.426,-0.221L0.426,-0L0.45,-0L0.45,-0.221C0.45,-0.303 0.407,-0.376 0.327,-0.398C0.4,-0.418 0.447,-0.483 0.447,-0.576C0.447,-0.682 0.377,-0.751 0.263,-0.751L0.083,-0.751L0.083,-0L0.107,-0L0.107,-0.387L0.263,-0.387ZM0.107,-0.409L0.107,-0.729L0.263,-0.729C0.367,-0.729 0.426,-0.668 0.426,-0.576C0.426,-0.482 0.369,-0.409 0.263,-0.409L0.107,-0.409ZM0.129,-0.431L0.263,-0.431C0.346,-0.431 0.404,-0.481 0.404,-0.576C0.404,-0.656 0.355,-0.706 0.263,-0.706L0.129,-0.706L0.129,-0.431ZM0.152,-0.454L0.152,-0.683L0.263,-0.683C0.339,-0.683 0.383,-0.647 0.383,-0.576C0.383,-0.492 0.332,-0.454 0.263,-0.454L0.152,-0.454ZM0.408,-0.398C0.457,-0.431 0.489,-0.483 0.489,-0.576C0.489,-0.719 0.401,-0.797 0.263,-0.797L0.039,-0.797L0.039,-0L0.061,-0L0.061,-0.774L0.263,-0.774C0.389,-0.774 0.467,-0.701 0.467,-0.576C0.467,-0.494 0.442,-0.436 0.374,-0.398C0.441,-0.357 0.472,-0.296 0.472,-0.221L0.472,-0L0.495,-0L0.495,-0.221C0.495,-0.294 0.466,-0.358 0.408,-0.398ZM0.263,-0.363L0.129,-0.363L0.129,-0L0.152,-0L0.152,-0.342L0.263,-0.342C0.337,-0.342 0.382,-0.293 0.382,-0.221L0.382,-0L0.404,-0L0.404,-0.221C0.404,-0.31 0.352,-0.363 0.263,-0.363Z" style="fill:white;fill-rule:nonzero;"/>
            </g>
            <g transform="matrix(200,0,0,200,587.727,374.438)">
                <path d="M0.485,-0.587C0.485,-0.719 0.384,-0.811 0.258,-0.811C0.132,-0.811 0.031,-0.719 0.031,-0.587L0.031,-0.209C0.031,-0.078 0.132,0.015 0.258,0.015C0.384,0.015 0.485,-0.078 0.485,-0.209L0.485,-0.587ZM0.462,-0.209C0.462,-0.088 0.362,-0.009 0.258,-0.009C0.154,-0.009 0.053,-0.088 0.053,-0.209L0.053,-0.587C0.053,-0.709 0.154,-0.788 0.258,-0.788C0.362,-0.788 0.462,-0.709 0.462,-0.587L0.462,-0.209ZM0.439,-0.587C0.439,-0.694 0.351,-0.766 0.258,-0.766C0.165,-0.766 0.077,-0.694 0.077,-0.587L0.077,-0.209C0.077,-0.103 0.165,-0.031 0.258,-0.031C0.351,-0.031 0.439,-0.103 0.439,-0.209L0.439,-0.587ZM0.416,-0.209C0.416,-0.118 0.35,-0.053 0.258,-0.053C0.166,-0.053 0.1,-0.118 0.1,-0.209L0.1,-0.587C0.1,-0.679 0.166,-0.743 0.258,-0.743C0.35,-0.743 0.416,-0.679 0.416,-0.587L0.416,-0.209ZM0.394,-0.587C0.394,-0.67 0.33,-0.72 0.258,-0.72C0.186,-0.72 0.122,-0.67 0.122,-0.587L0.122,-0.209C0.122,-0.127 0.186,-0.077 0.258,-0.077C0.33,-0.077 0.394,-0.127 0.394,-0.209L0.394,-0.587ZM0.371,-0.209C0.371,-0.14 0.328,-0.099 0.258,-0.099C0.188,-0.099 0.144,-0.14 0.144,-0.209L0.144,-0.587C0.144,-0.657 0.188,-0.698 0.258,-0.698C0.328,-0.698 0.371,-0.657 0.371,-0.587L0.371,-0.209Z" style="fill:white;fill-rule:nonzero;"/>
            </g>
            <g transform="matrix(200,0,0,200,690.927,374.438)">
                <path d="M0.485,-0.587C0.485,-0.719 0.384,-0.811 0.258,-0.811C0.132,-0.811 0.031,-0.719 0.031,-0.587L0.031,-0.209C0.031,-0.078 0.132,0.015 0.258,0.015C0.384,0.015 0.485,-0.078 0.485,-0.209L0.485,-0.587ZM0.462,-0.209C0.462,-0.088 0.362,-0.009 0.258,-0.009C0.154,-0.009 0.053,-0.088 0.053,-0.209L0.053,-0.587C0.053,-0.709 0.154,-0.788 0.258,-0.788C0.362,-0.788 0.462,-0.709 0.462,-0.587L0.462,-0.209ZM0.439,-0.587C0.439,-0.694 0.351,-0.766 0.258,-0.766C0.165,-0.766 0.077,-0.694 0.077,-0.587L0.077,-0.209C0.077,-0.103 0.165,-0.031 0.258,-0.031C0.351,-0.031 0.439,-0.103 0.439,-0.209L0.439,-0.587ZM0.416,-0.209C0.416,-0.118 0.35,-0.053 0.258,-0.053C0.166,-0.053 0.1,-0.118 0.1,-0.209L0.1,-0.587C0.1,-0.679 0.166,-0.743 0.258,-0.743C0.35,-0.743 0.416,-0.679 0.416,-0.587L0.416,-0.209ZM0.394,-0.587C0.394,-0.67 0.33,-0.72 0.258,-0.72C0.186,-0.72 0.122,-0.67 0.122,-0.587L0.122,-0.209C0.122,-0.127 0.186,-0.077 0.258,-0.077C0.33,-0.077 0.394,-0.127 0.394,-0.209L0.394,-0.587ZM0.371,-0.209C0.371,-0.14 0.328,-0.099 0.258,-0.099C0.188,-0.099 0.144,-0.14 0.144,-0.209L0.144,-0.587C0.144,-0.657 0.188,-0.698 0.258,-0.698C0.328,-0.698 0.371,-0.657 0.371,-0.587L0.371,-0.209Z" style="fill:white;fill-rule:nonzero;"/>
            </g>
            <g transform="matrix(200,0,0,200,790.127,374.438)">
                <path d="M0.242,-0L0.411,-0.797L0.387,-0.797L0.232,-0.052L0.076,-0.797L0.053,-0.797L0.221,-0L0.242,-0ZM0.365,-0.797L0.342,-0.797L0.232,-0.263L0.121,-0.797L0.099,-0.797L0.232,-0.159L0.365,-0.797ZM0.455,-0.797L0.432,-0.797L0.266,-0L0.287,-0L0.455,-0.797ZM0.031,-0.797L0.008,-0.797L0.175,-0L0.198,-0L0.031,-0.797Z" style="fill:white;fill-rule:nonzero;"/>
            </g>
            <g transform="matrix(200,0,0,200,882.527,374.438)">
                <path d="M0.271,-0.359C0.364,-0.366 0.437,-0.45 0.437,-0.542L0.437,-0.797L0.414,-0.797L0.414,-0.542C0.414,-0.457 0.351,-0.381 0.261,-0.381C0.172,-0.381 0.097,-0.457 0.097,-0.542L0.097,-0.797L0.074,-0.797L0.074,-0.536C0.074,-0.45 0.155,-0.362 0.249,-0.359L0.249,-0L0.271,-0L0.271,-0.359ZM0.226,-0.336C0.128,-0.352 0.051,-0.44 0.051,-0.542L0.051,-0.797L0.029,-0.797L0.029,-0.536C0.029,-0.432 0.1,-0.346 0.204,-0.32L0.204,-0L0.226,-0L0.226,-0.336ZM0.392,-0.797L0.369,-0.797L0.369,-0.536C0.369,-0.472 0.332,-0.426 0.254,-0.426C0.184,-0.426 0.142,-0.472 0.142,-0.542L0.142,-0.797L0.119,-0.797L0.119,-0.542C0.119,-0.465 0.177,-0.403 0.252,-0.403C0.332,-0.403 0.392,-0.465 0.392,-0.542L0.392,-0.797ZM0.317,-0.322C0.411,-0.348 0.483,-0.432 0.483,-0.536L0.483,-0.797L0.46,-0.797L0.46,-0.533C0.46,-0.44 0.383,-0.356 0.294,-0.34L0.294,-0L0.317,-0L0.317,-0.322Z" style="fill:white;fill-rule:nonzero;"/>
            </g>
            <g transform="matrix(200,0,0,200,378.527,574.438)">
                <path d="M0.363,-0L0.385,-0L0.385,-0.612C0.385,-0.692 0.432,-0.743 0.515,-0.743C0.597,-0.743 0.644,-0.692 0.644,-0.612L0.644,-0L0.667,-0L0.667,-0.612C0.667,-0.702 0.614,-0.766 0.515,-0.766C0.44,-0.766 0.391,-0.734 0.373,-0.667C0.363,-0.728 0.304,-0.766 0.233,-0.766C0.134,-0.766 0.08,-0.702 0.08,-0.612L0.08,-0L0.104,-0L0.104,-0.612C0.104,-0.692 0.15,-0.743 0.233,-0.743C0.315,-0.743 0.363,-0.692 0.363,-0.612L0.363,-0ZM0.69,-0L0.712,-0L0.712,-0.612C0.712,-0.728 0.649,-0.811 0.515,-0.811C0.453,-0.811 0.403,-0.79 0.373,-0.758C0.341,-0.79 0.295,-0.811 0.233,-0.811C0.098,-0.811 0.035,-0.728 0.035,-0.612L0.035,-0L0.057,-0L0.057,-0.612C0.057,-0.713 0.115,-0.788 0.233,-0.788C0.293,-0.788 0.337,-0.768 0.374,-0.724C0.411,-0.768 0.456,-0.788 0.515,-0.788C0.632,-0.788 0.69,-0.713 0.69,-0.612L0.69,-0ZM0.599,-0L0.621,-0L0.621,-0.612C0.621,-0.679 0.578,-0.72 0.515,-0.72C0.452,-0.72 0.407,-0.679 0.407,-0.612L0.407,-0L0.429,-0L0.429,-0.612C0.429,-0.67 0.466,-0.698 0.515,-0.698C0.563,-0.698 0.599,-0.67 0.599,-0.612L0.599,-0ZM0.318,-0L0.34,-0L0.34,-0.612C0.34,-0.679 0.296,-0.72 0.233,-0.72C0.17,-0.72 0.126,-0.679 0.126,-0.612L0.126,-0L0.148,-0L0.148,-0.612C0.148,-0.67 0.184,-0.698 0.233,-0.698C0.281,-0.698 0.318,-0.67 0.318,-0.612L0.318,-0Z" style="fill:white;fill-rule:nonzero;"/>
            </g>
            <g transform="matrix(200,0,0,200,527.927,574.438)">
                <path d="M0.485,-0.587C0.485,-0.719 0.384,-0.811 0.258,-0.811C0.132,-0.811 0.031,-0.719 0.031,-0.587L0.031,-0.209C0.031,-0.078 0.132,0.015 0.258,0.015C0.384,0.015 0.485,-0.078 0.485,-0.209L0.485,-0.587ZM0.462,-0.209C0.462,-0.088 0.362,-0.009 0.258,-0.009C0.154,-0.009 0.053,-0.088 0.053,-0.209L0.053,-0.587C0.053,-0.709 0.154,-0.788 0.258,-0.788C0.362,-0.788 0.462,-0.709 0.462,-0.587L0.462,-0.209ZM0.439,-0.587C0.439,-0.694 0.351,-0.766 0.258,-0.766C0.165,-0.766 0.077,-0.694 0.077,-0.587L0.077,-0.209C0.077,-0.103 0.165,-0.031 0.258,-0.031C0.351,-0.031 0.439,-0.103 0.439,-0.209L0.439,-0.587ZM0.416,-0.209C0.416,-0.118 0.35,-0.053 0.258,-0.053C0.166,-0.053 0.1,-0.118 0.1,-0.209L0.1,-0.587C0.1,-0.679 0.166,-0.743 0.258,-0.743C0.35,-0.743 0.416,-0.679 0.416,-0.587L0.416,-0.209ZM0.394,-0.587C0.394,-0.67 0.33,-0.72 0.258,-0.72C0.186,-0.72 0.122,-0.67 0.122,-0.587L0.122,-0.209C0.122,-0.127 0.186,-0.077 0.258,-0.077C0.33,-0.077 0.394,-0.127 0.394,-0.209L0.394,-0.587ZM0.371,-0.209C0.371,-0.14 0.328,-0.099 0.258,-0.099C0.188,-0.099 0.144,-0.14 0.144,-0.209L0.144,-0.587C0.144,-0.657 0.188,-0.698 0.258,-0.698C0.328,-0.698 0.371,-0.657 0.371,-0.587L0.371,-0.209Z" style="fill:white;fill-rule:nonzero;"/>
            </g>
            <g transform="matrix(200,0,0,200,627.127,574.438)">
                <path d="M0.242,-0L0.411,-0.797L0.387,-0.797L0.232,-0.052L0.076,-0.797L0.053,-0.797L0.221,-0L0.242,-0ZM0.365,-0.797L0.342,-0.797L0.232,-0.263L0.121,-0.797L0.099,-0.797L0.232,-0.159L0.365,-0.797ZM0.455,-0.797L0.432,-0.797L0.266,-0L0.287,-0L0.455,-0.797ZM0.031,-0.797L0.008,-0.797L0.175,-0L0.198,-0L0.031,-0.797Z" style="fill:white;fill-rule:nonzero;"/>
            </g>
            <g transform="matrix(200,0,0,200,719.527,574.438)">
                <path d="M0.062,-0.797L0.039,-0.797L0.039,-0L0.062,-0L0.062,-0.797ZM0.108,-0.797L0.084,-0.797L0.084,-0L0.108,-0L0.108,-0.797ZM0.152,-0.797L0.13,-0.797L0.13,-0L0.152,-0L0.152,-0.797Z" style="fill:white;fill-rule:nonzero;"/>
            </g>
            <g transform="matrix(200,0,0,200,757.727,574.438)">
                <path d="M0.47,-0.209C0.47,-0.088 0.369,-0.009 0.266,-0.009C0.162,-0.009 0.061,-0.088 0.061,-0.209L0.061,-0.587C0.061,-0.709 0.162,-0.788 0.266,-0.788C0.369,-0.788 0.47,-0.709 0.47,-0.587L0.47,-0.564L0.492,-0.564L0.492,-0.587C0.492,-0.719 0.392,-0.811 0.266,-0.811C0.14,-0.811 0.039,-0.719 0.039,-0.587L0.039,-0.209C0.039,-0.078 0.14,0.015 0.266,0.015C0.392,0.015 0.492,-0.078 0.492,-0.209L0.492,-0.229L0.47,-0.229L0.47,-0.209ZM0.108,-0.587C0.108,-0.679 0.174,-0.743 0.266,-0.743C0.358,-0.743 0.424,-0.679 0.424,-0.587L0.424,-0.564L0.447,-0.564L0.447,-0.587C0.447,-0.694 0.359,-0.766 0.266,-0.766C0.173,-0.766 0.084,-0.694 0.084,-0.587L0.084,-0.209C0.084,-0.103 0.173,-0.031 0.266,-0.031C0.359,-0.031 0.447,-0.103 0.447,-0.209L0.447,-0.229L0.424,-0.229L0.424,-0.209C0.424,-0.118 0.358,-0.053 0.266,-0.053C0.174,-0.053 0.108,-0.118 0.108,-0.209L0.108,-0.386L0.345,-0.386L0.345,-0.408L0.108,-0.408L0.108,-0.587ZM0.152,-0.587C0.152,-0.657 0.196,-0.698 0.266,-0.698C0.335,-0.698 0.379,-0.657 0.379,-0.587L0.379,-0.564L0.401,-0.564L0.401,-0.587C0.401,-0.67 0.337,-0.72 0.266,-0.72C0.194,-0.72 0.13,-0.67 0.13,-0.587L0.13,-0.43L0.345,-0.43L0.345,-0.454L0.152,-0.454L0.152,-0.587ZM0.379,-0.209C0.379,-0.14 0.335,-0.099 0.266,-0.099C0.196,-0.099 0.152,-0.14 0.152,-0.209L0.152,-0.34L0.345,-0.34L0.345,-0.363L0.13,-0.363L0.13,-0.209C0.13,-0.127 0.194,-0.077 0.266,-0.077C0.337,-0.077 0.401,-0.127 0.401,-0.209L0.401,-0.229L0.379,-0.229L0.379,-0.209Z" style="fill:white;fill-rule:nonzero;"/>
            </g>
        </g>
    </g>
</svg>
