<?xml version="1.0" encoding="UTF-8" standalone="no"?><!DOCTYPE svg PUBLIC "-//W3C//DTD SVG 1.1//EN" "http://www.w3.org/Graphics/SVG/1.1/DTD/svg11.dtd"><svg width="100%" height="100%" viewBox="0 0 500 500" version="1.1" xmlns="http://www.w3.org/2000/svg" xmlns:xlink="http://www.w3.org/1999/xlink" xml:space="preserve" xmlns:serif="http://www.serif.com/" style="fill-rule:evenodd;clip-rule:evenodd;stroke-linejoin:round;stroke-miterlimit:2;"><g transform="matrix(0.726375,-0.0487022,0.0487022,0.726375,-270.472,-0.483278)"><g transform="matrix(148.808,0,0,148.808,358.465,378.773)"><path d="M0.696,-0.189l0.025,-0.232c0.002,-0.092 -0.042,-0.139 -0.127,-0.139l-0.165,-0.001c-0.095,0.001 -0.088,0.088 -0.092,0.102l0.015,-0.152c0.003,-0.031 0.032,-0.054 0.068,-0.054c0.062,0 0.008,0.073 0.083,0.079c0.083,0.004 0.204,0.017 0.216,-0.074c0.016,-0.156 -0.115,-0.273 -0.276,-0.272l-0.039,0c-0.05,0 -0.101,0.013 -0.145,0.037l-0.001,0c-0.094,0.052 -0.156,0.144 -0.166,0.247l-0.044,0.415c-0.005,0.051 0.002,0.101 0.023,0.146l-0,0.001c0.138,0.297 0.59,0.232 0.625,-0.103Zm-0.271,-0.127l-0.008,0.073c-0.003,0.032 -0.054,0.064 -0.105,0.041c-0.001,-0.004 -0.001,-0.007 -0,-0.01l0.025,-0.247c-0.027,0.133 0.014,0.151 0.088,0.143Zm0.213,-0.171l-0.027,0.253c-0.009,0.09 -0.064,0.17 -0.141,0.215c-0.039,0.022 -0.08,0.034 -0.123,0.034l-0.04,0c-0.087,0 -0.159,-0.048 -0.195,-0.124c-0.017,-0.038 -0.024,-0.079 -0.019,-0.124l0.044,-0.415c0.009,-0.089 0.062,-0.165 0.139,-0.208c0.04,-0.021 0.081,-0.031 0.124,-0.031l0.04,0c0.079,-0.001 0.153,0.033 0.192,0.098c0.019,0.032 0.028,0.072 0.024,0.118c-0.001,0.012 -0.011,0.022 -0.024,0.022l-0.107,0c-0.015,0 -0.026,-0.008 -0.026,-0.022c-0.002,-0.063 -0.041,-0.076 -0.095,-0.076l-0.005,0c-0.055,0 -0.104,0.041 -0.11,0.096l-0.043,0.412c-0.006,0.055 0.035,0.102 0.09,0.102l0.004,0c0.054,0 0.114,-0.032 0.122,-0.102l0.013,-0.129l-0.08,0c-0.013,0 -0.024,-0.013 -0.023,-0.026l0.01,-0.093c0.001,-0.016 0.018,-0.031 0.034,-0.031l0.195,0c0.017,0 0.028,0.015 0.027,0.031Z" style="fill:#fff;fill-rule:nonzero;"/></g><g transform="matrix(148.808,0,0,148.808,464.565,378.773)"><path d="M0.143,0.09l0.096,0c0.045,0 0.085,-0.033 0.09,-0.077l0.007,-0.064l0.006,0.033c0.006,0.025 0.022,0.044 0.042,0.055c0.012,0.032 0.042,0.053 0.079,0.053l0.105,0c0.039,0 0.073,-0.032 0.077,-0.071c0.001,-0.007 0.001,-0.015 -0.001,-0.023l-0.051,-0.212c0.047,-0.043 0.076,-0.102 0.083,-0.167l0.025,-0.236c0.012,-0.103 -0.01,-0.175 -0.065,-0.216c-0.033,-0.056 -0.096,-0.085 -0.188,-0.085l-0.244,-0c-0.047,-0 -0.084,0.034 -0.089,0.08l-0.085,0.808c-0.004,0.034 0.013,0.061 0.041,0.072c0.008,0.03 0.035,0.05 0.072,0.05Zm0.06,-0.09l-0.096,-0c-0.023,-0 -0.034,-0.013 -0.032,-0.032l0.085,-0.808c0.002,-0.02 0.016,-0.035 0.039,-0.035l0.244,0c0.144,0 0.188,0.077 0.173,0.211l-0.026,0.236c-0.007,0.066 -0.04,0.12 -0.088,0.154l0.057,0.239c0.001,0.003 0.001,0.006 0.001,0.009c-0.001,0.014 -0.014,0.026 -0.028,0.026l-0.105,-0c-0.022,-0 -0.039,-0.015 -0.042,-0.037l-0.036,-0.196l-0.084,-0.001l-0.021,0.202c-0.002,0.019 -0.021,0.032 -0.041,0.032Zm0.169,-0.429l-0.004,0l0.024,-0.225l0.029,0.001l-0.021,0.198c-0.001,0.015 -0.014,0.026 -0.028,0.026Zm-0.06,-0.315l-0.038,0.36l0.094,0c0.039,0 0.073,-0.032 0.077,-0.071l0.023,-0.219c0.004,-0.04 -0.023,-0.069 -0.063,-0.069l-0.093,-0.001Z" style="fill:#fff;fill-rule:nonzero;"/></g><g transform="matrix(148.808,0,0,148.808,565.16,378.773)"><path d="M0.337,0.099l0.042,0c0.153,0 0.297,-0.133 0.313,-0.29l0.043,-0.413c0.009,-0.092 -0.023,-0.172 -0.083,-0.223c-0.044,-0.065 -0.12,-0.106 -0.212,-0.106l-0.041,-0c-0.16,-0 -0.298,0.125 -0.315,0.285l-0.043,0.412c-0.01,0.095 0.022,0.177 0.084,0.229c0.044,0.065 0.12,0.106 0.212,0.106Zm0.006,-0.09l-0.042,-0c-0.132,-0 -0.23,-0.101 -0.215,-0.245l0.043,-0.412c0.015,-0.136 0.131,-0.24 0.266,-0.24l0.041,-0c0.133,-0 0.228,0.102 0.213,0.239l-0.042,0.413c-0.014,0.134 -0.138,0.245 -0.264,0.245Zm-0.011,-0.148l0.005,-0c0.054,-0 0.103,-0.047 0.109,-0.102l0.042,-0.409c0.006,-0.055 -0.033,-0.096 -0.088,-0.096l-0.004,-0c-0.055,-0 -0.105,0.041 -0.111,0.096l-0.042,0.409c-0.006,0.055 0.034,0.102 0.089,0.102Zm0.01,-0.045l-0.005,-0c-0.003,-0 -0.006,-0 -0.009,-0.001c-0.001,-0.003 -0.001,-0.007 0,-0.011l0.043,-0.409c0.003,-0.029 0.029,-0.051 0.06,-0.051l0.004,0c0.003,0 0.006,0 0.009,0.001c0,0.001 0,0.003 -0.001,0.005l-0.042,0.409c-0.004,0.031 -0.031,0.057 -0.059,0.057Z" style="fill:#fff;fill-rule:nonzero;"/></g><g transform="matrix(148.808,0,0,148.808,672.451,378.773)"><path d="M0.337,0.099l0.042,0c0.153,0 0.297,-0.133 0.313,-0.29l0.043,-0.413c0.009,-0.092 -0.023,-0.172 -0.083,-0.223c-0.044,-0.065 -0.12,-0.106 -0.212,-0.106l-0.041,-0c-0.16,-0 -0.298,0.125 -0.315,0.285l-0.043,0.412c-0.01,0.095 0.022,0.177 0.084,0.229c0.044,0.065 0.12,0.106 0.212,0.106Zm0.006,-0.09l-0.042,-0c-0.132,-0 -0.23,-0.101 -0.215,-0.245l0.043,-0.412c0.015,-0.136 0.131,-0.24 0.266,-0.24l0.041,-0c0.133,-0 0.228,0.102 0.213,0.239l-0.042,0.413c-0.014,0.134 -0.138,0.245 -0.264,0.245Zm-0.011,-0.148l0.005,-0c0.054,-0 0.103,-0.047 0.109,-0.102l0.042,-0.409c0.006,-0.055 -0.033,-0.096 -0.088,-0.096l-0.004,-0c-0.055,-0 -0.105,0.041 -0.111,0.096l-0.042,0.409c-0.006,0.055 0.034,0.102 0.089,0.102Zm0.01,-0.045l-0.005,-0c-0.003,-0 -0.006,-0 -0.009,-0.001c-0.001,-0.003 -0.001,-0.007 0,-0.011l0.043,-0.409c0.003,-0.029 0.029,-0.051 0.06,-0.051l0.004,0c0.003,0 0.006,0 0.009,0.001c0,0.001 0,0.003 -0.001,0.005l-0.042,0.409c-0.004,0.031 -0.031,0.057 -0.059,0.057Z" style="fill:#fff;fill-rule:nonzero;"/></g><g transform="matrix(148.808,0,0,148.808,776.765,378.773)"><path d="M0.278,0.09l0.157,0c0.043,0 0.084,-0.029 0.096,-0.069l0.25,-0.81c0.012,-0.036 -0.005,-0.069 -0.038,-0.081c-0.006,-0.029 -0.033,-0.05 -0.069,-0.05l-0.107,0c-0.041,0 -0.069,0.022 -0.083,0.063l-0.089,0.308l-0.023,-0.265c-0.005,-0.029 -0.021,-0.05 -0.043,-0.057c-0.01,-0.031 -0.032,-0.049 -0.063,-0.049l-0.106,0c-0.05,0 -0.089,0.04 -0.084,0.086l0.078,0.81c0.002,0.026 0.02,0.048 0.044,0.06c0.01,0.032 0.042,0.054 0.08,0.054Zm0.121,-0.09l-0.157,0c-0.022,0 -0.041,-0.014 -0.043,-0.033l-0.078,-0.81c-0.002,-0.018 0.013,-0.032 0.034,-0.032l0.106,0c0.016,0 0.027,0.014 0.027,0.042l0.056,0.622l0.184,-0.637c0.005,-0.018 0.013,-0.027 0.034,-0.027l0.107,0c0.021,0 0.035,0.014 0.029,0.032l-0.25,0.81c-0.006,0.019 -0.028,0.033 -0.049,0.033Z" style="fill:#fff;fill-rule:nonzero;"/></g><g transform="matrix(148.808,0,0,148.808,885.247,378.773)"><path d="M0.276,0.095l0.092,0c0.046,0 0.088,-0.035 0.093,-0.079l0.037,-0.354c0.004,-0.015 0.008,-0.03 0.017,-0.045l0.187,-0.38l0,-0.001c0.006,-0.013 0.011,-0.029 0.012,-0.042c0.004,-0.034 -0.01,-0.056 -0.041,-0.066c-0.004,-0.033 -0.033,-0.051 -0.082,-0.051l-0.079,-0c-0.039,-0 -0.07,0.021 -0.086,0.058l-0.042,0.097c-0.004,-0.024 -0.009,-0.042 -0.011,-0.052c-0.007,-0.026 -0.021,-0.043 -0.043,-0.051c-0.01,-0.034 -0.038,-0.052 -0.078,-0.052l-0.077,0c-0.06,0 -0.093,0.023 -0.098,0.068c-0.001,0.014 0.001,0.031 0.005,0.047l0.113,0.405c0.001,0.007 0.002,0.014 0.003,0.022l-0.037,0.352c-0.004,0.032 0.014,0.06 0.042,0.072c0.009,0.031 0.038,0.052 0.073,0.052Zm0.056,-0.09l-0.092,-0c-0.02,-0 -0.036,-0.015 -0.034,-0.034l0.037,-0.356c-0.001,-0.02 -0.005,-0.04 -0.012,-0.06l-0.105,-0.379c-0.004,-0.013 -0.004,-0.023 -0.004,-0.031c0.002,-0.019 0.019,-0.023 0.049,-0.023l0.077,-0c0.019,-0 0.034,0.004 0.04,0.027c0.063,0.27 0.063,0.269 0.063,0.27l0.117,-0.27c0.009,-0.022 0.024,-0.027 0.04,-0.027l0.079,-0c0.024,-0 0.045,0.002 0.042,0.027c-0.001,0.007 -0.003,0.016 -0.008,0.027l-0.187,0.379c-0.01,0.02 -0.017,0.04 -0.021,0.06l-0.037,0.356c-0.002,0.019 -0.023,0.034 -0.044,0.034Z" style="fill:#fff;fill-rule:nonzero;"/></g><g transform="matrix(148.808,0,0,148.808,501.321,527.582)"><path d="M0.144,0.09l0.091,0c0.041,0 0.08,-0.035 0.084,-0.076c0.007,0.009 0.016,0.016 0.028,0.022c0.01,0.031 0.038,0.051 0.077,0.054l0.09,0c0.047,-0.003 0.082,-0.027 0.096,-0.069l0,-0.001c0.007,0.008 0.017,0.015 0.028,0.019c0.008,0.031 0.035,0.051 0.071,0.051l0.088,0c0.046,0 0.084,-0.034 0.088,-0.079l0.085,-0.808c0.004,-0.034 -0.013,-0.061 -0.042,-0.072c-0.007,-0.03 -0.034,-0.05 -0.07,-0.05l-0.16,0c-0.015,0 -0.092,-0.01 -0.123,0.075l-0.055,0.186l-0.011,-0.14c-0.004,-0.037 -0.023,-0.055 -0.045,-0.065c-0.019,-0.058 -0.083,-0.056 -0.103,-0.056l-0.156,0c-0.045,0 -0.086,0.034 -0.09,0.077l-0.085,0.808c-0.003,0.031 0.016,0.06 0.043,0.072c0.009,0.03 0.038,0.052 0.071,0.052Zm0.055,-0.09l-0.091,0c-0.019,0 -0.035,-0.018 -0.033,-0.034l0.085,-0.808c0.002,-0.019 0.021,-0.032 0.04,-0.032l0.156,0c0.023,0 0.062,-0.001 0.068,0.04l0.039,0.522l0.155,-0.522c0.017,-0.045 0.057,-0.04 0.075,-0.04l0.16,0c0.021,0 0.034,0.013 0.032,0.032l-0.085,0.808c-0.002,0.02 -0.018,0.034 -0.039,0.034l-0.088,0c-0.026,0 -0.035,-0.018 -0.033,-0.038l0.082,-0.618l-0.195,0.622c-0.009,0.024 -0.026,0.032 -0.051,0.034l-0.086,0c-0.022,-0.002 -0.041,-0.014 -0.042,-0.039l-0.062,-0.617l-0.052,0.624c-0.002,0.016 -0.018,0.032 -0.035,0.032Z" style="fill:#fff;fill-rule:nonzero;"/></g><g transform="matrix(148.808,0,0,148.808,643.433,527.582)"><path d="M0.337,0.099l0.042,0c0.153,0 0.297,-0.133 0.313,-0.29l0.043,-0.413c0.009,-0.092 -0.023,-0.172 -0.083,-0.223c-0.044,-0.065 -0.12,-0.106 -0.212,-0.106l-0.041,-0c-0.16,-0 -0.298,0.125 -0.315,0.285l-0.043,0.412c-0.01,0.095 0.022,0.177 0.084,0.229c0.044,0.065 0.12,0.106 0.212,0.106Zm0.006,-0.09l-0.042,-0c-0.132,-0 -0.23,-0.101 -0.215,-0.245l0.043,-0.412c0.015,-0.136 0.131,-0.24 0.266,-0.24l0.041,-0c0.133,-0 0.228,0.102 0.213,0.239l-0.042,0.413c-0.014,0.134 -0.138,0.245 -0.264,0.245Zm-0.011,-0.148l0.005,-0c0.054,-0 0.103,-0.047 0.109,-0.102l0.042,-0.409c0.006,-0.055 -0.033,-0.096 -0.088,-0.096l-0.004,-0c-0.055,-0 -0.105,0.041 -0.111,0.096l-0.042,0.409c-0.006,0.055 0.034,0.102 0.089,0.102Zm0.01,-0.045l-0.005,-0c-0.003,-0 -0.006,-0 -0.009,-0.001c-0.001,-0.003 -0.001,-0.007 0,-0.011l0.043,-0.409c0.003,-0.029 0.029,-0.051 0.06,-0.051l0.004,0c0.003,0 0.006,0 0.009,0.001c0,0.001 0,0.003 -0.001,0.005l-0.042,0.409c-0.004,0.031 -0.031,0.057 -0.059,0.057Z" style="fill:#fff;fill-rule:nonzero;"/></g><g transform="matrix(148.808,0,0,148.808,747.748,527.582)"><path d="M0.278,0.09l0.157,0c0.043,0 0.084,-0.029 0.096,-0.069l0.25,-0.81c0.012,-0.036 -0.005,-0.069 -0.038,-0.081c-0.006,-0.029 -0.033,-0.05 -0.069,-0.05l-0.107,0c-0.041,0 -0.069,0.022 -0.083,0.063l-0.089,0.308l-0.023,-0.265c-0.005,-0.029 -0.021,-0.05 -0.043,-0.057c-0.01,-0.031 -0.032,-0.049 -0.063,-0.049l-0.106,0c-0.05,0 -0.089,0.04 -0.084,0.086l0.078,0.81c0.002,0.026 0.02,0.048 0.044,0.06c0.01,0.032 0.042,0.054 0.08,0.054Zm0.121,-0.09l-0.157,0c-0.022,0 -0.041,-0.014 -0.043,-0.033l-0.078,-0.81c-0.002,-0.018 0.013,-0.032 0.034,-0.032l0.106,0c0.016,0 0.027,0.014 0.027,0.042l0.056,0.622l0.184,-0.637c0.005,-0.018 0.013,-0.027 0.034,-0.027l0.107,0c0.021,0 0.035,0.014 0.029,0.032l-0.25,0.81c-0.006,0.019 -0.028,0.033 -0.049,0.033Z" style="fill:#fff;fill-rule:nonzero;"/></g><g transform="matrix(148.808,0,0,148.808,856.229,527.582)"><path d="M0.14,0.093l0.092,0c0.042,0 0.081,-0.037 0.085,-0.079l0.085,-0.809c0.004,-0.034 -0.014,-0.063 -0.042,-0.074c-0.009,-0.029 -0.035,-0.05 -0.067,-0.05l-0.092,0c-0.044,0 -0.081,0.035 -0.086,0.079l-0.085,0.809c-0.004,0.033 0.014,0.063 0.042,0.074c0.009,0.029 0.035,0.05 0.068,0.05Zm0.056,-0.09l-0.092,0c-0.019,0 -0.031,-0.016 -0.029,-0.034l0.085,-0.809c0.002,-0.019 0.017,-0.034 0.036,-0.034l0.092,0c0.017,0 0.031,0.015 0.029,0.034l-0.085,0.809c-0.002,0.018 -0.019,0.034 -0.036,0.034Z" style="fill:#fff;fill-rule:nonzero;"/></g><g transform="matrix(148.808,0,0,148.808,913.818,527.582)"><path d="M0.141,0.087l0.368,0c0.044,0 0.083,-0.035 0.087,-0.078l0.009,-0.087c0.004,-0.033 -0.014,-0.06 -0.042,-0.072c-0.008,-0.029 -0.035,-0.05 -0.069,-0.05l-0.162,0l0.005,-0.042l0.146,0c0.044,0 0.079,-0.032 0.084,-0.076l0.009,-0.087c0.003,-0.035 -0.014,-0.062 -0.043,-0.073c-0.007,-0.029 -0.031,-0.049 -0.065,-0.049l-0.101,0l0.011,-0.107l0.207,0c0.044,0 0.082,-0.035 0.087,-0.079l0.009,-0.086c0.004,-0.033 -0.013,-0.061 -0.042,-0.072c-0.008,-0.03 -0.035,-0.05 -0.069,-0.05l-0.368,0c-0.045,0 -0.082,0.033 -0.087,0.077l-0.085,0.808c-0.004,0.034 0.013,0.062 0.042,0.073c0.008,0.029 0.035,0.05 0.069,0.05Zm0.332,-0.09l-0.368,0c-0.02,0 -0.032,-0.015 -0.03,-0.033l0.085,-0.808c0.002,-0.019 0.017,-0.032 0.037,-0.032l0.368,0c0.019,0 0.033,0.013 0.031,0.032l-0.009,0.086c-0.002,0.019 -0.019,0.034 -0.038,0.034l-0.252,0l-0.025,0.242l0.191,0c0.019,0 0.029,0.013 0.027,0.032l-0.009,0.087c-0.002,0.019 -0.015,0.031 -0.034,0.031l-0.191,0l-0.019,0.177l0.252,0c0.019,0 0.033,0.014 0.031,0.032l-0.009,0.087c-0.002,0.018 -0.019,0.033 -0.038,0.033Z" style="fill:#fff;fill-rule:nonzero;"/></g></g></svg>